PathFileType	4	(X/Y/Z)	T1_P1_Vision_Movement_1_0-686.trc
DataRate	CameraRate	NumFrames	NumMarkers	Units	OrigDataRate	OrigDataStartFrame	OrigNumFrames
60	60	7	27	m	60	85	686
Frame#	Time	RHip			RKnee			RAnkle			RBigToe			RSmallToe			RHeel			LHip			LKnee			LAnkle			LBigToe			LSmallToe			LHeel			Neck			Head			Nose			RShoulder			RElbow			RWrist			RThumb			RIndex			RPinky			LShoulder			LElbow			LWrist			LThumb			LIndex			LPinky		
		X1	Y1	Z1	X2	Y2	Z2	X3	Y3	Z3	X4	Y4	Z4	X5	Y5	Z5	X6	Y6	Z6	X7	Y7	Z7	X8	Y8	Z8	X9	Y9	Z9	X10	Y10	Z10	X11	Y11	Z11	X12	Y12	Z12	X13	Y13	Z13	X14	Y14	Z14	X15	Y15	Z15	X16	Y16	Z16	X17	Y17	Z17	X18	Y18	Z18	X19	Y19	Z19	X20	Y20	Z20	X21	Y21	Z21	X22	Y22	Z22	X23	Y23	Z23	X24	Y24	Z24	X25	Y25	Z25	X26	Y26	Z26	X27	Y27	Z27
86	1.4333333333333333	-88.21057760770758	3870.168027253032	-710.8588321822268	262.7948168753329	3968.2228160574045	-669.8308057744792	623.6447187073604	4227.0115295904025	-695.5083672300036	694.132615616703	4078.1740022871377	-625.6304391128637	705.5088056785235	4127.481301135413	-728.9482425698104	666.6294947895614	4310.742973367318	-713.0880843015709	-121.99394772251308	3970.6103805528273	-520.3090127516911	220.51880275737946	4056.2728467147103	-510.3584624225014	582.9268522092019	4327.161486987969	-540.2648469579193	655.7418560750377	4147.679506360818	-483.9025062742265	642.8762403725136	4261.348911145273	-438.9807346093195	634.5339534077023	4379.690762966322	-571.4335560628984	-695.6127338248328	3776.417423783949	-622.1033485076836	-940.7766394977492	3655.0276804145838	-581.5746581722665	-797.3628960748866	3646.9652534345755	-548.4224227263801	-586.8643208245652	3728.097592949247	-747.6514267086592	-314.1350626722145	3608.8129337650266	-754.8774484659384	-445.35624167654424	3434.889980582306	-541.6557958944197	-557.4559347806671	3474.55337018519	-464.85391123042353	-554.1027895473204	3444.28207487704	-434.83091899249484	-526.6748204241842	3441.0402170846037	-446.5983946429935	-641.0147930038821	3911.4017196201207	-530.1329307346618	-396.35316519313324	4011.6262445725124	-467.2660306133557	-136.63139496770737	3968.265648001122	-378.5162585592341	-6.302933701999995	3965.30225462627	-361.7863918119608	19.00530420575027	3959.070289126147	-344.4526546216505	-2.6016841601298903	4095.9924102171	-371.16609288928566
87	1.45	-88.0189000569452	3898.2727784851572	-724.9072553939706	268.4976701240145	4009.696804957358	-702.7066194025514	623.7705009262763	4228.10268776772	-696.189843134086	692.9281760488298	4094.8639258880803	-638.769365832106	703.7064872064209	4123.427878537101	-729.3967506732641	666.7489406554448	4311.025539573242	-713.5001007176724	-111.74759478690054	3976.684825524886	-521.6509624965678	220.60864902907215	4055.4163533020155	-510.14998292729706	578.5888929315945	4294.787305456948	-533.1513093437385	655.5659386576052	4147.022107083879	-483.77759764601876	637.788888968663	4228.8423581397	-431.98222646505513	634.2838165047901	4379.143100144923	-570.839849328945	-695.7465948017517	3776.8695801721765	-622.344873530854	-940.7643364575091	3655.148048623261	-581.5750633412626	-802.2595137609633	3671.4746054457546	-554.633197975939	-590.7206662070183	3754.8441939898858	-755.8508102297125	-318.5842586766222	3591.2829649538435	-740.0137342009446	-448.6252731447398	3458.1557753582533	-542.4288915606146	-557.425215740982	3473.055876182192	-458.01866379382307	-553.610973451963	3442.652987656609	-426.9190226117712	-525.8250274989007	3439.7869754527696	-445.8614798089374	-636.3620709218247	3914.688434113002	-531.324129608256	-395.97629668298254	4012.406628619525	-473.5241280039783	-136.66415725267169	3968.3173396448738	-378.46368593160156	-6.476515046558057	3965.347935466498	-361.6658451665218	18.894183171600275	3959.4158170851765	-344.4204839262318	-2.7198856815155974	4097.215809218231	-371.34765014403126
88	1.4666666666666666	-82.24273035557074	3900.5584209759736	-724.5317041426856	265.75236932411434	3989.4630471061487	-686.4169775451309	623.5118400304474	4227.274754137637	-693.6474802231467	692.8000648614153	4095.0708960377956	-638.8090602159607	704.7770594029398	4123.01065244568	-726.2169868703402	660.3471503523151	4307.187592897591	-711.6419629238551	-116.96376687371071	3973.0453808039774	-520.1208006951492	220.5737587674286	4056.129737609429	-510.3528568300104	572.3184115564615	4291.093273408272	-533.4776034277155	655.2946183796553	4146.858165759816	-483.67256108897755	631.3780963186326	4224.127489714953	-429.6441673847026	627.0941182462989	4373.0778744349245	-567.7642653387883	-695.6584299826366	3776.887446699399	-622.2944403527388	-940.8094753891751	3655.0610502946356	-581.5112103171998	-797.5892140479949	3672.7006193835437	-554.6577107243882	-590.627063208021	3754.997204371084	-755.9686468572461	-309.57227803425667	3611.8477088364043	-756.3242194128876	-448.64669682978734	3458.4297140427902	-542.6314588287876	-557.7933167352334	3473.5897172381187	-458.3148515586009	-559.7818273115184	3456.696287837414	-438.70597622637115	-526.7695290277317	3441.1646622913195	-446.4646509742582	-631.2175583970476	3916.015766491725	-531.3449821363844	-395.90886117504226	4012.4803566609958	-473.5659675912854	-136.1716583408235	3988.770847926449	-392.34983504472956	-6.361921946126919	3965.3133992631238	-361.655242404437	18.96356185030915	3959.3456152950994	-344.3691005162134	-2.610547510816092	4096.423111662229	-371.215653909828
89	1.4833333333333334	-87.23910647406788	3900.0968164430838	-724.6958050468892	265.718936678901	3988.820137422759	-685.9740245824208	617.2993312435732	4223.675696773471	-693.7792735235156	688.0044748289605	4073.8234193028006	-623.3531006893197	705.0265033768067	4122.987226481432	-726.1000416311864	660.216914714346	4307.064895694168	-711.5038243625261	-111.79016400759652	3976.3715513786938	-521.5065736648273	220.60844491712479	4055.9004643486123	-510.2936153642766	583.3186819379156	4327.693855323831	-540.3856222986126	655.6683285047948	4147.692230389995	-483.8259735111846	642.3283710813378	4260.793868224874	-438.28630703324137	634.7772668557416	4380.1931094417	-571.4173035267781	-695.6889025977065	3776.9052619078902	-622.3439840810221	-940.813132469743	3655.0688135644673	-581.539137714207	-797.3044807742842	3646.8186470918736	-548.2337263829431	-590.6083018833023	3755.225950342336	-756.0303817211202	-313.64022197880905	3591.663567450953	-739.9496107477339	-452.9572538277582	3457.758758799779	-542.6343991411694	-557.6103882041461	3474.8598888545675	-465.0735121152389	-550.5181499985723	3445.6478227353527	-428.17125975979934	-534.897560992444	3461.7533773623136	-452.30844517240394	-631.1397427581154	3915.86480130205	-531.2089341917579	-399.0399229228141	4040.9657397969454	-473.3326405728541	-136.42344433420428	3968.1289012990114	-378.29150920714676	-6.063799414850203	3965.799315987565	-361.7244772138595	19.31404630830285	3986.528007029276	-349.8938644918583	-2.3949708101363716	4097.833072446293	-371.5087848715147
90	1.5	-87.15241473436053	3900.2179378642986	-724.8048855435585	265.5675582431046	3989.27019853105	-686.3202498160466	616.9769588351506	4223.922412111818	-693.8865520072736	681.5591566159916	4070.511919060725	-623.7480105939576	696.7918287382071	4129.686517285433	-718.7965821385495	660.3760445099684	4308.33317378241	-714.1048680224433	-116.86457101947829	3972.7309920573816	-519.9907909392255	220.64597756506706	4056.287727112382	-510.5318454198356	577.3086561077433	4324.821255446128	-541.1857074012303	660.2297787891165	4179.4590707925045	-490.3875970039448	642.4916551332362	4261.653085969357	-438.76910381090784	635.1972071769403	4381.248784801898	-571.9399453507259	-695.6431526114077	3776.652575670886	-622.10310358015	-940.9176866698349	3655.044802498051	-581.389682412015	-797.7493545844762	3672.6410240394753	-554.531823922855	-590.6365534914298	3755.033724421439	-755.8215351075763	-314.2880455080137	3608.65570370242	-754.8522653508313	-453.02603993235334	3458.075040097774	-542.8389458969681	-557.9799933610924	3475.710158805328	-465.0889703848232	-559.6975799244751	3480.8930874041666	-445.4629530938198	-535.3430227906474	3463.049156802694	-452.53359105345845	-631.1873117216113	3915.6861206017475	-531.0935113769239	-396.2986409486355	4011.6155856750547	-467.2082553279775	-131.185952491184	3970.0790981095483	-377.72635534584265	-6.116472445967888	3965.5606693039495	-361.6182486405738	19.091494017879064	3959.1988511883064	-344.31068392530864	2.0953839023188916	4098.174106331193	-370.29860797535434
91	1.5166666666666666	-81.98013590735628	3900.9089091630904	-724.5316454130066	272.1724317090981	3992.3265979792513	-685.5921441006509	623.6525271326128	4227.44605934221	-695.7368754222192	693.1166005135524	4095.3506875984126	-638.7350708597835	716.1312909627237	4159.74493393503	-737.579452557111	661.388729878113	4286.775624785053	-696.8035803568645	-111.58033066327123	3976.9644609837815	-521.5574712206186	222.56049071750962	4087.5095937423616	-517.3015731900587	583.4051637643254	4327.935163817307	-540.5756613265925	660.2360761088498	4179.294627596698	-490.43286674485057	642.5198726231356	4261.858547329008	-438.8818126567398	634.3606171144503	4379.488391427758	-571.1249220778275	-695.5614924987639	3776.772682545188	-622.2425626258857	-940.8795785689255	3655.2105094009867	-581.4646893655374	-797.6654792883759	3672.625045347031	-554.4887551314621	-588.6230796394326	3737.2291152769626	-740.7119963263019	-313.70779219986156	3592.0424178336093	-740.3823314906042	-453.0389692657994	3457.8612277732386	-542.6879879907945	-556.6613717013723	3459.9475323073816	-446.6178893851954	-558.2742229505756	3466.2246498161876	-433.84197800803184	-535.2546588960705	3462.7756394421936	-452.02914387912534	-635.81402995626	3912.342359997522	-529.845849310755	-396.25835281043595	4011.5673286771244	-467.2259118997679	-131.06142238503614	3970.128093809988	-377.62316312102456	-6.119916244707718	3965.9267897228297	-361.5896864078142	19.370949887785248	3986.583726827338	-349.71920209073977	7.905939569696099	4103.628829607727	-372.3006217803549
92	1.5333333333333334	-87.12868166767404	3900.44942129184	-724.807282317432	265.7136501067957	3989.2211760706246	-685.9432030229688	618.3852408978088	4193.4328139323125	-686.862785444305	693.5344841765015	4095.074301130783	-638.620797626718	697.9262428750734	4119.993499418102	-727.2111350608428	660.138221980268	4308.053708790552	-714.3322824800773	-111.69507277309043	3976.933483011539	-521.5989296768994	222.37406881825757	4087.415789057415	-517.3421489242071	577.7001686985676	4324.948496670024	-541.3923166718506	660.2905552270644	4179.788263666226	-490.29620285213457	636.3832467600836	4257.10639468535	-436.2695775272628	634.5360112736948	4379.515787447094	-571.2360395462891	-695.6607034244969	3776.9879986123206	-622.2864815693812	-940.883802771617	3655.073780081111	-581.3800247985156	-797.8162365405595	3672.7933455569914	-554.460190025486	-588.6591407286373	3737.3784641472575	-740.7664721558534	-315.55793873035145	3617.6804468137707	-748.3468523441697	-462.85615748480524	3453.640999807219	-541.7305959355291	-561.6231312944783	3458.186104537476	-446.74342035413576	-561.783357081672	3463.4621044397395	-432.6910373613757	-535.2527598428558	3462.4119611153933	-451.72045979711964	-640.9338631105031	3911.1508029383062	-529.8647879634163	-396.34362381449216	4011.2690882347224	-467.09100788568475	-131.30432533735467	3970.046419049962	-377.6324319590037	-6.432325751022132	3966.1655351937643	-361.5854652749346	14.106918590655873	3983.3128351181404	-348.1359264066258	2.4071467361958447	4099.952602536561	-370.87648770061463
